<?xml version="1.0" encoding="utf-8"?>
<!-- Generator: Adobe Illustrator 27.0.0, SVG Export Plug-In . SVG Version: 6.00 Build 0)  -->
<svg version="1.1" id="Слой_1" xmlns="http://www.w3.org/2000/svg" xmlns:xlink="http://www.w3.org/1999/xlink" x="0px" y="0px"
	 viewBox="0 0 512 512" style="enable-background:new 0 0 512 512;" xml:space="preserve">
<style type="text/css">
	.st0{fill:url(#SVGID_1_);}
	.st1{fill:#F5F5F7;}
</style>
<linearGradient id="SVGID_1_" gradientUnits="userSpaceOnUse" x1="88.4641" y1="546.1806" x2="423.5359" y2="-34.1806">
	<stop  offset="0" style="stop-color:#D50000"/>
	<stop  offset="1" style="stop-color:#FA233B"/>
</linearGradient>
<path class="st0" d="M472,512H40c-22.1,0-40-17.9-40-40V40C0,17.9,17.9,0,40,0h432c22.1,0,40,17.9,40,40v432
	C512,494.1,494.1,512,472,512z"/>
<g id="AV">
	<path class="st1" d="M128.9,114.4L38.3,311.9c8,31,22.4,59.4,41.8,83.8l0,0L97.3,354h89.3l9,41.7h80.3l-70.6-281.2L128.9,114.4
		L128.9,114.4z M125.4,288.8l31.5-84.4h1.4l13.5,84.4H125.4z"/>
	<path class="st1" d="M430.9,114.4h-0.6l-69.7,165h-1.4l-35.3-164.9h-82.5l68.1,281.2h76.6l87.8-195.5
		C465.8,168.3,451,139.3,430.9,114.4z"/>
</g>
</svg>
